<mxfile host="app.diagrams.net" modified="2023-05-16T14:40:37.584Z" agent="5.0 (Windows NT 10.0; Win64; x64) AppleWebKit/537.36 (KHTML, like Gecko) Chrome/112.0.0.0 Safari/537.36 OPR/98.0.0.0" etag="YQ6kKwiJl4hnOLQ_ofDw" version="20.8.19" type="github">
  <diagram name="Page-1" id="9c096ad6-e400-ecc8-3e38-643d2caac077">
    <mxGraphModel dx="1331" dy="806" grid="1" gridSize="10" guides="1" tooltips="1" connect="1" arrows="1" fold="1" page="1" pageScale="1.5" pageWidth="1169" pageHeight="826" background="none" math="0" shadow="0">
      <root>
        <mxCell id="0" style=";html=1;" />
        <mxCell id="1" style=";html=1;" parent="0" />
        <mxCell id="K06LqBxd0SO_TNTU_cGi-29" value="" style="shape=table;startSize=0;container=1;collapsible=0;childLayout=tableLayout;fontSize=16;swimlaneLine=1;" vertex="1" parent="1">
          <mxGeometry x="80" y="320" width="80" height="80" as="geometry" />
        </mxCell>
        <mxCell id="K06LqBxd0SO_TNTU_cGi-30" value="" style="shape=tableRow;horizontal=0;startSize=0;swimlaneHead=0;swimlaneBody=0;strokeColor=inherit;top=0;left=0;bottom=0;right=0;collapsible=0;dropTarget=0;fillColor=none;points=[[0,0.5],[1,0.5]];portConstraint=eastwest;fontSize=16;" vertex="1" parent="K06LqBxd0SO_TNTU_cGi-29">
          <mxGeometry width="80" height="40" as="geometry" />
        </mxCell>
        <mxCell id="K06LqBxd0SO_TNTU_cGi-31" value="0" style="shape=partialRectangle;html=1;whiteSpace=wrap;connectable=0;strokeColor=inherit;overflow=hidden;fillColor=none;top=0;left=0;bottom=0;right=0;pointerEvents=1;fontSize=16;" vertex="1" parent="K06LqBxd0SO_TNTU_cGi-30">
          <mxGeometry width="40" height="40" as="geometry">
            <mxRectangle width="40" height="40" as="alternateBounds" />
          </mxGeometry>
        </mxCell>
        <mxCell id="K06LqBxd0SO_TNTU_cGi-32" value="0" style="shape=partialRectangle;html=1;whiteSpace=wrap;connectable=0;strokeColor=inherit;overflow=hidden;fillColor=none;top=0;left=0;bottom=0;right=0;pointerEvents=1;fontSize=16;" vertex="1" parent="K06LqBxd0SO_TNTU_cGi-30">
          <mxGeometry x="40" width="40" height="40" as="geometry">
            <mxRectangle width="40" height="40" as="alternateBounds" />
          </mxGeometry>
        </mxCell>
        <mxCell id="K06LqBxd0SO_TNTU_cGi-34" value="" style="shape=tableRow;horizontal=0;startSize=0;swimlaneHead=0;swimlaneBody=0;strokeColor=inherit;top=0;left=0;bottom=0;right=0;collapsible=0;dropTarget=0;fillColor=none;points=[[0,0.5],[1,0.5]];portConstraint=eastwest;fontSize=16;" vertex="1" parent="K06LqBxd0SO_TNTU_cGi-29">
          <mxGeometry y="40" width="80" height="40" as="geometry" />
        </mxCell>
        <mxCell id="K06LqBxd0SO_TNTU_cGi-35" value="0" style="shape=partialRectangle;html=1;whiteSpace=wrap;connectable=0;strokeColor=inherit;overflow=hidden;fillColor=none;top=0;left=0;bottom=0;right=0;pointerEvents=1;fontSize=16;" vertex="1" parent="K06LqBxd0SO_TNTU_cGi-34">
          <mxGeometry width="40" height="40" as="geometry">
            <mxRectangle width="40" height="40" as="alternateBounds" />
          </mxGeometry>
        </mxCell>
        <mxCell id="K06LqBxd0SO_TNTU_cGi-36" value="1" style="shape=partialRectangle;html=1;whiteSpace=wrap;connectable=0;strokeColor=inherit;overflow=hidden;fillColor=none;top=0;left=0;bottom=0;right=0;pointerEvents=1;fontSize=16;" vertex="1" parent="K06LqBxd0SO_TNTU_cGi-34">
          <mxGeometry x="40" width="40" height="40" as="geometry">
            <mxRectangle width="40" height="40" as="alternateBounds" />
          </mxGeometry>
        </mxCell>
        <mxCell id="K06LqBxd0SO_TNTU_cGi-42" value="" style="shape=table;startSize=0;container=1;collapsible=0;childLayout=tableLayout;fontSize=16;swimlaneLine=1;" vertex="1" parent="1">
          <mxGeometry x="240" y="320" width="80" height="80" as="geometry" />
        </mxCell>
        <mxCell id="K06LqBxd0SO_TNTU_cGi-43" value="" style="shape=tableRow;horizontal=0;startSize=0;swimlaneHead=0;swimlaneBody=0;strokeColor=inherit;top=0;left=0;bottom=0;right=0;collapsible=0;dropTarget=0;fillColor=none;points=[[0,0.5],[1,0.5]];portConstraint=eastwest;fontSize=16;" vertex="1" parent="K06LqBxd0SO_TNTU_cGi-42">
          <mxGeometry width="80" height="40" as="geometry" />
        </mxCell>
        <mxCell id="K06LqBxd0SO_TNTU_cGi-44" value="3" style="shape=partialRectangle;html=1;whiteSpace=wrap;connectable=0;strokeColor=inherit;overflow=hidden;fillColor=none;top=0;left=0;bottom=0;right=0;pointerEvents=1;fontSize=16;" vertex="1" parent="K06LqBxd0SO_TNTU_cGi-43">
          <mxGeometry width="40" height="40" as="geometry">
            <mxRectangle width="40" height="40" as="alternateBounds" />
          </mxGeometry>
        </mxCell>
        <mxCell id="K06LqBxd0SO_TNTU_cGi-45" value="3" style="shape=partialRectangle;html=1;whiteSpace=wrap;connectable=0;strokeColor=inherit;overflow=hidden;fillColor=none;top=0;left=0;bottom=0;right=0;pointerEvents=1;fontSize=16;" vertex="1" parent="K06LqBxd0SO_TNTU_cGi-43">
          <mxGeometry x="40" width="40" height="40" as="geometry">
            <mxRectangle width="40" height="40" as="alternateBounds" />
          </mxGeometry>
        </mxCell>
        <mxCell id="K06LqBxd0SO_TNTU_cGi-46" value="" style="shape=tableRow;horizontal=0;startSize=0;swimlaneHead=0;swimlaneBody=0;strokeColor=inherit;top=0;left=0;bottom=0;right=0;collapsible=0;dropTarget=0;fillColor=none;points=[[0,0.5],[1,0.5]];portConstraint=eastwest;fontSize=16;" vertex="1" parent="K06LqBxd0SO_TNTU_cGi-42">
          <mxGeometry y="40" width="80" height="40" as="geometry" />
        </mxCell>
        <mxCell id="K06LqBxd0SO_TNTU_cGi-47" value="0" style="shape=partialRectangle;html=1;whiteSpace=wrap;connectable=0;strokeColor=inherit;overflow=hidden;fillColor=none;top=0;left=0;bottom=0;right=0;pointerEvents=1;fontSize=16;" vertex="1" parent="K06LqBxd0SO_TNTU_cGi-46">
          <mxGeometry width="40" height="40" as="geometry">
            <mxRectangle width="40" height="40" as="alternateBounds" />
          </mxGeometry>
        </mxCell>
        <mxCell id="K06LqBxd0SO_TNTU_cGi-48" value="2" style="shape=partialRectangle;html=1;whiteSpace=wrap;connectable=0;strokeColor=inherit;overflow=hidden;fillColor=none;top=0;left=0;bottom=0;right=0;pointerEvents=1;fontSize=16;" vertex="1" parent="K06LqBxd0SO_TNTU_cGi-46">
          <mxGeometry x="40" width="40" height="40" as="geometry">
            <mxRectangle width="40" height="40" as="alternateBounds" />
          </mxGeometry>
        </mxCell>
        <mxCell id="K06LqBxd0SO_TNTU_cGi-49" value="" style="endArrow=classic;html=1;rounded=0;exitX=1;exitY=0;exitDx=0;exitDy=0;exitPerimeter=0;" edge="1" parent="1" source="K06LqBxd0SO_TNTU_cGi-34">
          <mxGeometry width="50" height="50" relative="1" as="geometry">
            <mxPoint x="530" y="410" as="sourcePoint" />
            <mxPoint x="240" y="360" as="targetPoint" />
          </mxGeometry>
        </mxCell>
        <mxCell id="K06LqBxd0SO_TNTU_cGi-50" value="(A, 3)" style="edgeLabel;html=1;align=center;verticalAlign=middle;resizable=0;points=[];fontSize=20;" vertex="1" connectable="0" parent="K06LqBxd0SO_TNTU_cGi-49">
          <mxGeometry x="0.3" relative="1" as="geometry">
            <mxPoint x="-12" y="-20" as="offset" />
          </mxGeometry>
        </mxCell>
        <mxCell id="K06LqBxd0SO_TNTU_cGi-51" value="" style="endArrow=classic;html=1;rounded=0;fontSize=20;exitX=1;exitY=0;exitDx=0;exitDy=0;exitPerimeter=0;entryX=-0.025;entryY=0;entryDx=0;entryDy=0;entryPerimeter=0;" edge="1" parent="1" source="K06LqBxd0SO_TNTU_cGi-46" target="K06LqBxd0SO_TNTU_cGi-58">
          <mxGeometry width="50" height="50" relative="1" as="geometry">
            <mxPoint x="530" y="410" as="sourcePoint" />
            <mxPoint x="400" y="240" as="targetPoint" />
            <Array as="points" />
          </mxGeometry>
        </mxCell>
        <mxCell id="K06LqBxd0SO_TNTU_cGi-61" value="(B, 2)" style="edgeLabel;html=1;align=center;verticalAlign=middle;resizable=0;points=[];fontSize=20;" vertex="1" connectable="0" parent="K06LqBxd0SO_TNTU_cGi-51">
          <mxGeometry x="0.2962" y="2" relative="1" as="geometry">
            <mxPoint x="-39" y="17" as="offset" />
          </mxGeometry>
        </mxCell>
        <mxCell id="K06LqBxd0SO_TNTU_cGi-52" value="" style="endArrow=classic;html=1;rounded=0;fontSize=20;exitX=1.038;exitY=0;exitDx=0;exitDy=0;exitPerimeter=0;entryX=0.025;entryY=0;entryDx=0;entryDy=0;entryPerimeter=0;" edge="1" parent="1" source="K06LqBxd0SO_TNTU_cGi-46" target="K06LqBxd0SO_TNTU_cGi-67">
          <mxGeometry width="50" height="50" relative="1" as="geometry">
            <mxPoint x="530" y="410" as="sourcePoint" />
            <mxPoint x="440" y="360" as="targetPoint" />
          </mxGeometry>
        </mxCell>
        <mxCell id="K06LqBxd0SO_TNTU_cGi-70" value="(Î“, 6)" style="edgeLabel;html=1;align=center;verticalAlign=middle;resizable=0;points=[];fontSize=20;" vertex="1" connectable="0" parent="K06LqBxd0SO_TNTU_cGi-52">
          <mxGeometry x="0.2305" y="-1" relative="1" as="geometry">
            <mxPoint x="-12" y="20" as="offset" />
          </mxGeometry>
        </mxCell>
        <mxCell id="K06LqBxd0SO_TNTU_cGi-54" value="" style="shape=table;startSize=0;container=1;collapsible=0;childLayout=tableLayout;fontSize=16;swimlaneLine=1;" vertex="1" parent="1">
          <mxGeometry x="400" y="40" width="80" height="80" as="geometry" />
        </mxCell>
        <mxCell id="K06LqBxd0SO_TNTU_cGi-55" value="" style="shape=tableRow;horizontal=0;startSize=0;swimlaneHead=0;swimlaneBody=0;strokeColor=inherit;top=0;left=0;bottom=0;right=0;collapsible=0;dropTarget=0;fillColor=none;points=[[0,0.5],[1,0.5]];portConstraint=eastwest;fontSize=16;" vertex="1" parent="K06LqBxd0SO_TNTU_cGi-54">
          <mxGeometry width="80" height="40" as="geometry" />
        </mxCell>
        <mxCell id="K06LqBxd0SO_TNTU_cGi-56" value="7" style="shape=partialRectangle;html=1;whiteSpace=wrap;connectable=0;strokeColor=inherit;overflow=hidden;fillColor=none;top=0;left=0;bottom=0;right=0;pointerEvents=1;fontSize=16;" vertex="1" parent="K06LqBxd0SO_TNTU_cGi-55">
          <mxGeometry width="40" height="40" as="geometry">
            <mxRectangle width="40" height="40" as="alternateBounds" />
          </mxGeometry>
        </mxCell>
        <mxCell id="K06LqBxd0SO_TNTU_cGi-57" value="5" style="shape=partialRectangle;html=1;whiteSpace=wrap;connectable=0;strokeColor=inherit;overflow=hidden;fillColor=none;top=0;left=0;bottom=0;right=0;pointerEvents=1;fontSize=16;" vertex="1" parent="K06LqBxd0SO_TNTU_cGi-55">
          <mxGeometry x="40" width="40" height="40" as="geometry">
            <mxRectangle width="40" height="40" as="alternateBounds" />
          </mxGeometry>
        </mxCell>
        <mxCell id="K06LqBxd0SO_TNTU_cGi-58" value="" style="shape=tableRow;horizontal=0;startSize=0;swimlaneHead=0;swimlaneBody=0;strokeColor=inherit;top=0;left=0;bottom=0;right=0;collapsible=0;dropTarget=0;fillColor=none;points=[[0,0.5],[1,0.5]];portConstraint=eastwest;fontSize=16;" vertex="1" parent="K06LqBxd0SO_TNTU_cGi-54">
          <mxGeometry y="40" width="80" height="40" as="geometry" />
        </mxCell>
        <mxCell id="K06LqBxd0SO_TNTU_cGi-59" value="2" style="shape=partialRectangle;html=1;whiteSpace=wrap;connectable=0;strokeColor=inherit;overflow=hidden;fillColor=none;top=0;left=0;bottom=0;right=0;pointerEvents=1;fontSize=16;" vertex="1" parent="K06LqBxd0SO_TNTU_cGi-58">
          <mxGeometry width="40" height="40" as="geometry">
            <mxRectangle width="40" height="40" as="alternateBounds" />
          </mxGeometry>
        </mxCell>
        <mxCell id="K06LqBxd0SO_TNTU_cGi-60" value="3" style="shape=partialRectangle;html=1;whiteSpace=wrap;connectable=0;strokeColor=inherit;overflow=hidden;fillColor=none;top=0;left=0;bottom=0;right=0;pointerEvents=1;fontSize=16;" vertex="1" parent="K06LqBxd0SO_TNTU_cGi-58">
          <mxGeometry x="40" width="40" height="40" as="geometry">
            <mxRectangle width="40" height="40" as="alternateBounds" />
          </mxGeometry>
        </mxCell>
        <mxCell id="K06LqBxd0SO_TNTU_cGi-63" value="" style="shape=table;startSize=0;container=1;collapsible=0;childLayout=tableLayout;fontSize=16;swimlaneLine=1;" vertex="1" parent="1">
          <mxGeometry x="399.99999999999994" y="320" width="80" height="80" as="geometry" />
        </mxCell>
        <mxCell id="K06LqBxd0SO_TNTU_cGi-64" value="" style="shape=tableRow;horizontal=0;startSize=0;swimlaneHead=0;swimlaneBody=0;strokeColor=inherit;top=0;left=0;bottom=0;right=0;collapsible=0;dropTarget=0;fillColor=none;points=[[0,0.5],[1,0.5]];portConstraint=eastwest;fontSize=16;" vertex="1" parent="K06LqBxd0SO_TNTU_cGi-63">
          <mxGeometry width="80" height="40" as="geometry" />
        </mxCell>
        <mxCell id="K06LqBxd0SO_TNTU_cGi-65" value="9" style="shape=partialRectangle;html=1;whiteSpace=wrap;connectable=0;strokeColor=inherit;overflow=hidden;fillColor=none;top=0;left=0;bottom=0;right=0;pointerEvents=1;fontSize=16;" vertex="1" parent="K06LqBxd0SO_TNTU_cGi-64">
          <mxGeometry width="40" height="40" as="geometry">
            <mxRectangle width="40" height="40" as="alternateBounds" />
          </mxGeometry>
        </mxCell>
        <mxCell id="K06LqBxd0SO_TNTU_cGi-66" value="9" style="shape=partialRectangle;html=1;whiteSpace=wrap;connectable=0;strokeColor=inherit;overflow=hidden;fillColor=none;top=0;left=0;bottom=0;right=0;pointerEvents=1;fontSize=16;" vertex="1" parent="K06LqBxd0SO_TNTU_cGi-64">
          <mxGeometry x="40" width="40" height="40" as="geometry">
            <mxRectangle width="40" height="40" as="alternateBounds" />
          </mxGeometry>
        </mxCell>
        <mxCell id="K06LqBxd0SO_TNTU_cGi-67" value="" style="shape=tableRow;horizontal=0;startSize=0;swimlaneHead=0;swimlaneBody=0;strokeColor=inherit;top=0;left=0;bottom=0;right=0;collapsible=0;dropTarget=0;fillColor=none;points=[[0,0.5],[1,0.5]];portConstraint=eastwest;fontSize=16;" vertex="1" parent="K06LqBxd0SO_TNTU_cGi-63">
          <mxGeometry y="40" width="80" height="40" as="geometry" />
        </mxCell>
        <mxCell id="K06LqBxd0SO_TNTU_cGi-68" value="0" style="shape=partialRectangle;html=1;whiteSpace=wrap;connectable=0;strokeColor=inherit;overflow=hidden;fillColor=none;top=0;left=0;bottom=0;right=0;pointerEvents=1;fontSize=16;" vertex="1" parent="K06LqBxd0SO_TNTU_cGi-67">
          <mxGeometry width="40" height="40" as="geometry">
            <mxRectangle width="40" height="40" as="alternateBounds" />
          </mxGeometry>
        </mxCell>
        <mxCell id="K06LqBxd0SO_TNTU_cGi-69" value="4" style="shape=partialRectangle;html=1;whiteSpace=wrap;connectable=0;strokeColor=inherit;overflow=hidden;fillColor=none;top=0;left=0;bottom=0;right=0;pointerEvents=1;fontSize=16;" vertex="1" parent="K06LqBxd0SO_TNTU_cGi-67">
          <mxGeometry x="40" width="40" height="40" as="geometry">
            <mxRectangle width="40" height="40" as="alternateBounds" />
          </mxGeometry>
        </mxCell>
        <mxCell id="K06LqBxd0SO_TNTU_cGi-72" value="" style="endArrow=classic;html=1;rounded=0;fontSize=20;" edge="1" parent="1">
          <mxGeometry width="50" height="50" relative="1" as="geometry">
            <mxPoint x="480" y="360" as="sourcePoint" />
            <mxPoint x="560" y="480" as="targetPoint" />
          </mxGeometry>
        </mxCell>
        <mxCell id="K06LqBxd0SO_TNTU_cGi-80" value="(Î”, 2)" style="edgeLabel;html=1;align=center;verticalAlign=middle;resizable=0;points=[];fontSize=20;" vertex="1" connectable="0" parent="K06LqBxd0SO_TNTU_cGi-72">
          <mxGeometry x="0.1846" y="-2" relative="1" as="geometry">
            <mxPoint x="-25" y="8" as="offset" />
          </mxGeometry>
        </mxCell>
        <mxCell id="K06LqBxd0SO_TNTU_cGi-73" value="" style="shape=table;startSize=0;container=1;collapsible=0;childLayout=tableLayout;fontSize=16;swimlaneLine=1;" vertex="1" parent="1">
          <mxGeometry x="560" y="440" width="80" height="80" as="geometry" />
        </mxCell>
        <mxCell id="K06LqBxd0SO_TNTU_cGi-74" value="" style="shape=tableRow;horizontal=0;startSize=0;swimlaneHead=0;swimlaneBody=0;strokeColor=inherit;top=0;left=0;bottom=0;right=0;collapsible=0;dropTarget=0;fillColor=none;points=[[0,0.5],[1,0.5]];portConstraint=eastwest;fontSize=16;" vertex="1" parent="K06LqBxd0SO_TNTU_cGi-73">
          <mxGeometry width="80" height="40" as="geometry" />
        </mxCell>
        <mxCell id="K06LqBxd0SO_TNTU_cGi-75" value="14" style="shape=partialRectangle;html=1;whiteSpace=wrap;connectable=0;strokeColor=inherit;overflow=hidden;fillColor=none;top=0;left=0;bottom=0;right=0;pointerEvents=1;fontSize=16;" vertex="1" parent="K06LqBxd0SO_TNTU_cGi-74">
          <mxGeometry width="40" height="40" as="geometry">
            <mxRectangle width="40" height="40" as="alternateBounds" />
          </mxGeometry>
        </mxCell>
        <mxCell id="K06LqBxd0SO_TNTU_cGi-76" value="11" style="shape=partialRectangle;html=1;whiteSpace=wrap;connectable=0;strokeColor=inherit;overflow=hidden;fillColor=none;top=0;left=0;bottom=0;right=0;pointerEvents=1;fontSize=16;" vertex="1" parent="K06LqBxd0SO_TNTU_cGi-74">
          <mxGeometry x="40" width="40" height="40" as="geometry">
            <mxRectangle width="40" height="40" as="alternateBounds" />
          </mxGeometry>
        </mxCell>
        <mxCell id="K06LqBxd0SO_TNTU_cGi-77" value="" style="shape=tableRow;horizontal=0;startSize=0;swimlaneHead=0;swimlaneBody=0;strokeColor=inherit;top=0;left=0;bottom=0;right=0;collapsible=0;dropTarget=0;fillColor=none;points=[[0,0.5],[1,0.5]];portConstraint=eastwest;fontSize=16;" vertex="1" parent="K06LqBxd0SO_TNTU_cGi-73">
          <mxGeometry y="40" width="80" height="40" as="geometry" />
        </mxCell>
        <mxCell id="K06LqBxd0SO_TNTU_cGi-78" value="3" style="shape=partialRectangle;html=1;whiteSpace=wrap;connectable=0;strokeColor=inherit;overflow=hidden;fillColor=none;top=0;left=0;bottom=0;right=0;pointerEvents=1;fontSize=16;" vertex="1" parent="K06LqBxd0SO_TNTU_cGi-77">
          <mxGeometry width="40" height="40" as="geometry">
            <mxRectangle width="40" height="40" as="alternateBounds" />
          </mxGeometry>
        </mxCell>
        <mxCell id="K06LqBxd0SO_TNTU_cGi-79" value="5" style="shape=partialRectangle;html=1;whiteSpace=wrap;connectable=0;strokeColor=inherit;overflow=hidden;fillColor=none;top=0;left=0;bottom=0;right=0;pointerEvents=1;fontSize=16;" vertex="1" parent="K06LqBxd0SO_TNTU_cGi-77">
          <mxGeometry x="40" width="40" height="40" as="geometry">
            <mxRectangle width="40" height="40" as="alternateBounds" />
          </mxGeometry>
        </mxCell>
        <mxCell id="K06LqBxd0SO_TNTU_cGi-81" value="" style="endArrow=classic;html=1;rounded=0;fontSize=20;exitX=1;exitY=0;exitDx=0;exitDy=0;exitPerimeter=0;entryX=0.005;entryY=-0.001;entryDx=0;entryDy=0;entryPerimeter=0;" edge="1" parent="1" source="K06LqBxd0SO_TNTU_cGi-34" target="K06LqBxd0SO_TNTU_cGi-86">
          <mxGeometry width="50" height="50" relative="1" as="geometry">
            <mxPoint x="530" y="410" as="sourcePoint" />
            <mxPoint x="550" y="600" as="targetPoint" />
          </mxGeometry>
        </mxCell>
        <mxCell id="K06LqBxd0SO_TNTU_cGi-89" value="(Î•, 3)" style="edgeLabel;html=1;align=center;verticalAlign=middle;resizable=0;points=[];fontSize=20;" vertex="1" connectable="0" parent="K06LqBxd0SO_TNTU_cGi-81">
          <mxGeometry x="0.3154" y="2" relative="1" as="geometry">
            <mxPoint x="-44" y="4" as="offset" />
          </mxGeometry>
        </mxCell>
        <mxCell id="K06LqBxd0SO_TNTU_cGi-82" value="" style="shape=table;startSize=0;container=1;collapsible=0;childLayout=tableLayout;fontSize=16;swimlaneLine=1;" vertex="1" parent="1">
          <mxGeometry x="559.64" y="560.06" width="80" height="80" as="geometry" />
        </mxCell>
        <mxCell id="K06LqBxd0SO_TNTU_cGi-83" value="" style="shape=tableRow;horizontal=0;startSize=0;swimlaneHead=0;swimlaneBody=0;strokeColor=inherit;top=0;left=0;bottom=0;right=0;collapsible=0;dropTarget=0;fillColor=none;points=[[0,0.5],[1,0.5]];portConstraint=eastwest;fontSize=16;" vertex="1" parent="K06LqBxd0SO_TNTU_cGi-82">
          <mxGeometry width="80" height="40" as="geometry" />
        </mxCell>
        <mxCell id="K06LqBxd0SO_TNTU_cGi-84" value="14" style="shape=partialRectangle;html=1;whiteSpace=wrap;connectable=0;strokeColor=inherit;overflow=hidden;fillColor=none;top=0;left=0;bottom=0;right=0;pointerEvents=1;fontSize=16;" vertex="1" parent="K06LqBxd0SO_TNTU_cGi-83">
          <mxGeometry width="40" height="40" as="geometry">
            <mxRectangle width="40" height="40" as="alternateBounds" />
          </mxGeometry>
        </mxCell>
        <mxCell id="K06LqBxd0SO_TNTU_cGi-85" value="3" style="shape=partialRectangle;html=1;whiteSpace=wrap;connectable=0;strokeColor=inherit;overflow=hidden;fillColor=none;top=0;left=0;bottom=0;right=0;pointerEvents=1;fontSize=16;" vertex="1" parent="K06LqBxd0SO_TNTU_cGi-83">
          <mxGeometry x="40" width="40" height="40" as="geometry">
            <mxRectangle width="40" height="40" as="alternateBounds" />
          </mxGeometry>
        </mxCell>
        <mxCell id="K06LqBxd0SO_TNTU_cGi-86" value="" style="shape=tableRow;horizontal=0;startSize=0;swimlaneHead=0;swimlaneBody=0;strokeColor=inherit;top=0;left=0;bottom=0;right=0;collapsible=0;dropTarget=0;fillColor=none;points=[[0,0.5],[1,0.5]];portConstraint=eastwest;fontSize=16;" vertex="1" parent="K06LqBxd0SO_TNTU_cGi-82">
          <mxGeometry y="40" width="80" height="40" as="geometry" />
        </mxCell>
        <mxCell id="K06LqBxd0SO_TNTU_cGi-87" value="11" style="shape=partialRectangle;html=1;whiteSpace=wrap;connectable=0;strokeColor=inherit;overflow=hidden;fillColor=none;top=0;left=0;bottom=0;right=0;pointerEvents=1;fontSize=16;" vertex="1" parent="K06LqBxd0SO_TNTU_cGi-86">
          <mxGeometry width="40" height="40" as="geometry">
            <mxRectangle width="40" height="40" as="alternateBounds" />
          </mxGeometry>
        </mxCell>
        <mxCell id="K06LqBxd0SO_TNTU_cGi-88" value="6" style="shape=partialRectangle;html=1;whiteSpace=wrap;connectable=0;strokeColor=inherit;overflow=hidden;fillColor=none;top=0;left=0;bottom=0;right=0;pointerEvents=1;fontSize=16;" vertex="1" parent="K06LqBxd0SO_TNTU_cGi-86">
          <mxGeometry x="40" width="40" height="40" as="geometry">
            <mxRectangle width="40" height="40" as="alternateBounds" />
          </mxGeometry>
        </mxCell>
        <mxCell id="K06LqBxd0SO_TNTU_cGi-90" value="" style="endArrow=classic;html=1;rounded=0;fontSize=20;" edge="1" parent="1">
          <mxGeometry width="50" height="50" relative="1" as="geometry">
            <mxPoint x="480" y="80" as="sourcePoint" />
            <mxPoint x="560" y="80" as="targetPoint" />
          </mxGeometry>
        </mxCell>
        <mxCell id="K06LqBxd0SO_TNTU_cGi-98" value="(Î–, 3)" style="edgeLabel;html=1;align=center;verticalAlign=middle;resizable=0;points=[];fontSize=20;" vertex="1" connectable="0" parent="K06LqBxd0SO_TNTU_cGi-90">
          <mxGeometry x="0.3" y="-2" relative="1" as="geometry">
            <mxPoint x="-12" y="-22" as="offset" />
          </mxGeometry>
        </mxCell>
        <mxCell id="K06LqBxd0SO_TNTU_cGi-91" value="" style="shape=table;startSize=0;container=1;collapsible=0;childLayout=tableLayout;fontSize=16;swimlaneLine=1;" vertex="1" parent="1">
          <mxGeometry x="560" y="40" width="80" height="80" as="geometry" />
        </mxCell>
        <mxCell id="K06LqBxd0SO_TNTU_cGi-92" value="" style="shape=tableRow;horizontal=0;startSize=0;swimlaneHead=0;swimlaneBody=0;strokeColor=inherit;top=0;left=0;bottom=0;right=0;collapsible=0;dropTarget=0;fillColor=none;points=[[0,0.5],[1,0.5]];portConstraint=eastwest;fontSize=16;" vertex="1" parent="K06LqBxd0SO_TNTU_cGi-91">
          <mxGeometry width="80" height="40" as="geometry" />
        </mxCell>
        <mxCell id="K06LqBxd0SO_TNTU_cGi-93" value="10" style="shape=partialRectangle;html=1;whiteSpace=wrap;connectable=0;strokeColor=inherit;overflow=hidden;fillColor=none;top=0;left=0;bottom=0;right=0;pointerEvents=1;fontSize=16;" vertex="1" parent="K06LqBxd0SO_TNTU_cGi-92">
          <mxGeometry width="40" height="40" as="geometry">
            <mxRectangle width="40" height="40" as="alternateBounds" />
          </mxGeometry>
        </mxCell>
        <mxCell id="K06LqBxd0SO_TNTU_cGi-94" value="8" style="shape=partialRectangle;html=1;whiteSpace=wrap;connectable=0;strokeColor=inherit;overflow=hidden;fillColor=none;top=0;left=0;bottom=0;right=0;pointerEvents=1;fontSize=16;" vertex="1" parent="K06LqBxd0SO_TNTU_cGi-92">
          <mxGeometry x="40" width="40" height="40" as="geometry">
            <mxRectangle width="40" height="40" as="alternateBounds" />
          </mxGeometry>
        </mxCell>
        <mxCell id="K06LqBxd0SO_TNTU_cGi-95" value="" style="shape=tableRow;horizontal=0;startSize=0;swimlaneHead=0;swimlaneBody=0;strokeColor=inherit;top=0;left=0;bottom=0;right=0;collapsible=0;dropTarget=0;fillColor=none;points=[[0,0.5],[1,0.5]];portConstraint=eastwest;fontSize=16;" vertex="1" parent="K06LqBxd0SO_TNTU_cGi-91">
          <mxGeometry y="40" width="80" height="40" as="geometry" />
        </mxCell>
        <mxCell id="K06LqBxd0SO_TNTU_cGi-96" value="2" style="shape=partialRectangle;html=1;whiteSpace=wrap;connectable=0;strokeColor=inherit;overflow=hidden;fillColor=none;top=0;left=0;bottom=0;right=0;pointerEvents=1;fontSize=16;" vertex="1" parent="K06LqBxd0SO_TNTU_cGi-95">
          <mxGeometry width="40" height="40" as="geometry">
            <mxRectangle width="40" height="40" as="alternateBounds" />
          </mxGeometry>
        </mxCell>
        <mxCell id="K06LqBxd0SO_TNTU_cGi-97" value="7" style="shape=partialRectangle;html=1;whiteSpace=wrap;connectable=0;strokeColor=inherit;overflow=hidden;fillColor=none;top=0;left=0;bottom=0;right=0;pointerEvents=1;fontSize=16;" vertex="1" parent="K06LqBxd0SO_TNTU_cGi-95">
          <mxGeometry x="40" width="40" height="40" as="geometry">
            <mxRectangle width="40" height="40" as="alternateBounds" />
          </mxGeometry>
        </mxCell>
        <mxCell id="K06LqBxd0SO_TNTU_cGi-99" value="" style="endArrow=classic;html=1;rounded=0;fontSize=20;exitX=1.025;exitY=0;exitDx=0;exitDy=0;exitPerimeter=0;" edge="1" parent="1" source="K06LqBxd0SO_TNTU_cGi-67">
          <mxGeometry width="50" height="50" relative="1" as="geometry">
            <mxPoint x="530" y="410" as="sourcePoint" />
            <mxPoint x="560" y="360" as="targetPoint" />
          </mxGeometry>
        </mxCell>
        <mxCell id="K06LqBxd0SO_TNTU_cGi-107" value="(Î—, 5)" style="edgeLabel;html=1;align=center;verticalAlign=middle;resizable=0;points=[];fontSize=20;" vertex="1" connectable="0" parent="K06LqBxd0SO_TNTU_cGi-99">
          <mxGeometry x="0.5385" relative="1" as="geometry">
            <mxPoint x="-12" y="-20" as="offset" />
          </mxGeometry>
        </mxCell>
        <mxCell id="K06LqBxd0SO_TNTU_cGi-100" value="" style="shape=table;startSize=0;container=1;collapsible=0;childLayout=tableLayout;fontSize=16;swimlaneLine=1;" vertex="1" parent="1">
          <mxGeometry x="560" y="320" width="80" height="80" as="geometry" />
        </mxCell>
        <mxCell id="K06LqBxd0SO_TNTU_cGi-101" value="" style="shape=tableRow;horizontal=0;startSize=0;swimlaneHead=0;swimlaneBody=0;strokeColor=inherit;top=0;left=0;bottom=0;right=0;collapsible=0;dropTarget=0;fillColor=none;points=[[0,0.5],[1,0.5]];portConstraint=eastwest;fontSize=16;" vertex="1" parent="K06LqBxd0SO_TNTU_cGi-100">
          <mxGeometry width="80" height="40" as="geometry" />
        </mxCell>
        <mxCell id="K06LqBxd0SO_TNTU_cGi-102" value="14" style="shape=partialRectangle;html=1;whiteSpace=wrap;connectable=0;strokeColor=inherit;overflow=hidden;fillColor=none;top=0;left=0;bottom=0;right=0;pointerEvents=1;fontSize=16;" vertex="1" parent="K06LqBxd0SO_TNTU_cGi-101">
          <mxGeometry width="40" height="40" as="geometry">
            <mxRectangle width="40" height="40" as="alternateBounds" />
          </mxGeometry>
        </mxCell>
        <mxCell id="K06LqBxd0SO_TNTU_cGi-103" value="14" style="shape=partialRectangle;html=1;whiteSpace=wrap;connectable=0;strokeColor=inherit;overflow=hidden;fillColor=none;top=0;left=0;bottom=0;right=0;pointerEvents=1;fontSize=16;" vertex="1" parent="K06LqBxd0SO_TNTU_cGi-101">
          <mxGeometry x="40" width="40" height="40" as="geometry">
            <mxRectangle width="40" height="40" as="alternateBounds" />
          </mxGeometry>
        </mxCell>
        <mxCell id="K06LqBxd0SO_TNTU_cGi-104" value="" style="shape=tableRow;horizontal=0;startSize=0;swimlaneHead=0;swimlaneBody=0;strokeColor=inherit;top=0;left=0;bottom=0;right=0;collapsible=0;dropTarget=0;fillColor=none;points=[[0,0.5],[1,0.5]];portConstraint=eastwest;fontSize=16;" vertex="1" parent="K06LqBxd0SO_TNTU_cGi-100">
          <mxGeometry y="40" width="80" height="40" as="geometry" />
        </mxCell>
        <mxCell id="K06LqBxd0SO_TNTU_cGi-105" value="0" style="shape=partialRectangle;html=1;whiteSpace=wrap;connectable=0;strokeColor=inherit;overflow=hidden;fillColor=none;top=0;left=0;bottom=0;right=0;pointerEvents=1;fontSize=16;" vertex="1" parent="K06LqBxd0SO_TNTU_cGi-104">
          <mxGeometry width="40" height="40" as="geometry">
            <mxRectangle width="40" height="40" as="alternateBounds" />
          </mxGeometry>
        </mxCell>
        <mxCell id="K06LqBxd0SO_TNTU_cGi-106" value="8" style="shape=partialRectangle;html=1;whiteSpace=wrap;connectable=0;strokeColor=inherit;overflow=hidden;fillColor=none;top=0;left=0;bottom=0;right=0;pointerEvents=1;fontSize=16;" vertex="1" parent="K06LqBxd0SO_TNTU_cGi-104">
          <mxGeometry x="40" width="40" height="40" as="geometry">
            <mxRectangle width="40" height="40" as="alternateBounds" />
          </mxGeometry>
        </mxCell>
        <mxCell id="K06LqBxd0SO_TNTU_cGi-108" value="" style="endArrow=classic;html=1;rounded=0;fontSize=20;exitX=1;exitY=0.025;exitDx=0;exitDy=0;exitPerimeter=0;" edge="1" parent="1" source="K06LqBxd0SO_TNTU_cGi-67">
          <mxGeometry width="50" height="50" relative="1" as="geometry">
            <mxPoint x="530" y="410" as="sourcePoint" />
            <mxPoint x="560" y="240" as="targetPoint" />
          </mxGeometry>
        </mxCell>
        <mxCell id="K06LqBxd0SO_TNTU_cGi-116" value="(Î˜, 1)" style="edgeLabel;html=1;align=center;verticalAlign=middle;resizable=0;points=[];fontSize=20;" vertex="1" connectable="0" parent="K06LqBxd0SO_TNTU_cGi-108">
          <mxGeometry x="0.2619" y="-1" relative="1" as="geometry">
            <mxPoint x="-42" y="-5" as="offset" />
          </mxGeometry>
        </mxCell>
        <mxCell id="K06LqBxd0SO_TNTU_cGi-109" value="" style="shape=table;startSize=0;container=1;collapsible=0;childLayout=tableLayout;fontSize=16;swimlaneLine=1;" vertex="1" parent="1">
          <mxGeometry x="560" y="200" width="80" height="80" as="geometry" />
        </mxCell>
        <mxCell id="K06LqBxd0SO_TNTU_cGi-110" value="" style="shape=tableRow;horizontal=0;startSize=0;swimlaneHead=0;swimlaneBody=0;strokeColor=inherit;top=0;left=0;bottom=0;right=0;collapsible=0;dropTarget=0;fillColor=none;points=[[0,0.5],[1,0.5]];portConstraint=eastwest;fontSize=16;" vertex="1" parent="K06LqBxd0SO_TNTU_cGi-109">
          <mxGeometry width="80" height="40" as="geometry" />
        </mxCell>
        <mxCell id="K06LqBxd0SO_TNTU_cGi-111" value="10" style="shape=partialRectangle;html=1;whiteSpace=wrap;connectable=0;strokeColor=inherit;overflow=hidden;fillColor=none;top=0;left=0;bottom=0;right=0;pointerEvents=1;fontSize=16;" vertex="1" parent="K06LqBxd0SO_TNTU_cGi-110">
          <mxGeometry width="40" height="40" as="geometry">
            <mxRectangle width="40" height="40" as="alternateBounds" />
          </mxGeometry>
        </mxCell>
        <mxCell id="K06LqBxd0SO_TNTU_cGi-112" value="10" style="shape=partialRectangle;html=1;whiteSpace=wrap;connectable=0;strokeColor=inherit;overflow=hidden;fillColor=none;top=0;left=0;bottom=0;right=0;pointerEvents=1;fontSize=16;" vertex="1" parent="K06LqBxd0SO_TNTU_cGi-110">
          <mxGeometry x="40" width="40" height="40" as="geometry">
            <mxRectangle width="40" height="40" as="alternateBounds" />
          </mxGeometry>
        </mxCell>
        <mxCell id="K06LqBxd0SO_TNTU_cGi-113" value="" style="shape=tableRow;horizontal=0;startSize=0;swimlaneHead=0;swimlaneBody=0;strokeColor=inherit;top=0;left=0;bottom=0;right=0;collapsible=0;dropTarget=0;fillColor=none;points=[[0,0.5],[1,0.5]];portConstraint=eastwest;fontSize=16;" vertex="1" parent="K06LqBxd0SO_TNTU_cGi-109">
          <mxGeometry y="40" width="80" height="40" as="geometry" />
        </mxCell>
        <mxCell id="K06LqBxd0SO_TNTU_cGi-114" value="0" style="shape=partialRectangle;html=1;whiteSpace=wrap;connectable=0;strokeColor=inherit;overflow=hidden;fillColor=none;top=0;left=0;bottom=0;right=0;pointerEvents=1;fontSize=16;" vertex="1" parent="K06LqBxd0SO_TNTU_cGi-113">
          <mxGeometry width="40" height="40" as="geometry">
            <mxRectangle width="40" height="40" as="alternateBounds" />
          </mxGeometry>
        </mxCell>
        <mxCell id="K06LqBxd0SO_TNTU_cGi-115" value="9" style="shape=partialRectangle;html=1;whiteSpace=wrap;connectable=0;strokeColor=inherit;overflow=hidden;fillColor=none;top=0;left=0;bottom=0;right=0;pointerEvents=1;fontSize=16;" vertex="1" parent="K06LqBxd0SO_TNTU_cGi-113">
          <mxGeometry x="40" width="40" height="40" as="geometry">
            <mxRectangle width="40" height="40" as="alternateBounds" />
          </mxGeometry>
        </mxCell>
        <mxCell id="K06LqBxd0SO_TNTU_cGi-117" value="" style="endArrow=classic;html=1;rounded=0;fontSize=20;exitX=0.5;exitY=1.025;exitDx=0;exitDy=0;exitPerimeter=0;dashed=1;entryX=0.5;entryY=0;entryDx=0;entryDy=0;entryPerimeter=0;" edge="1" parent="1" source="K06LqBxd0SO_TNTU_cGi-95" target="K06LqBxd0SO_TNTU_cGi-110">
          <mxGeometry width="50" height="50" relative="1" as="geometry">
            <mxPoint x="601" y="200" as="sourcePoint" />
            <mxPoint x="860" y="170" as="targetPoint" />
          </mxGeometry>
        </mxCell>
        <mxCell id="K06LqBxd0SO_TNTU_cGi-118" value="(D1, 0)" style="edgeLabel;html=1;align=center;verticalAlign=middle;resizable=0;points=[];fontSize=20;" vertex="1" connectable="0" parent="K06LqBxd0SO_TNTU_cGi-117">
          <mxGeometry x="-0.3333" y="-3" relative="1" as="geometry">
            <mxPoint x="-33" y="13" as="offset" />
          </mxGeometry>
        </mxCell>
        <mxCell id="K06LqBxd0SO_TNTU_cGi-119" value="" style="endArrow=classic;html=1;rounded=0;fontSize=20;" edge="1" parent="1">
          <mxGeometry width="50" height="50" relative="1" as="geometry">
            <mxPoint x="640" y="240" as="sourcePoint" />
            <mxPoint x="720" y="240" as="targetPoint" />
          </mxGeometry>
        </mxCell>
        <mxCell id="K06LqBxd0SO_TNTU_cGi-127" value="(Î™, 2)" style="edgeLabel;html=1;align=center;verticalAlign=middle;resizable=0;points=[];fontSize=20;" vertex="1" connectable="0" parent="K06LqBxd0SO_TNTU_cGi-119">
          <mxGeometry x="0.325" y="1" relative="1" as="geometry">
            <mxPoint x="-13" y="-19" as="offset" />
          </mxGeometry>
        </mxCell>
        <mxCell id="K06LqBxd0SO_TNTU_cGi-120" value="" style="shape=table;startSize=0;container=1;collapsible=0;childLayout=tableLayout;fontSize=16;swimlaneLine=1;" vertex="1" parent="1">
          <mxGeometry x="720" y="200" width="80" height="80" as="geometry" />
        </mxCell>
        <mxCell id="K06LqBxd0SO_TNTU_cGi-121" value="" style="shape=tableRow;horizontal=0;startSize=0;swimlaneHead=0;swimlaneBody=0;strokeColor=inherit;top=0;left=0;bottom=0;right=0;collapsible=0;dropTarget=0;fillColor=none;points=[[0,0.5],[1,0.5]];portConstraint=eastwest;fontSize=16;" vertex="1" parent="K06LqBxd0SO_TNTU_cGi-120">
          <mxGeometry width="80" height="40" as="geometry" />
        </mxCell>
        <mxCell id="K06LqBxd0SO_TNTU_cGi-122" value="12" style="shape=partialRectangle;html=1;whiteSpace=wrap;connectable=0;strokeColor=inherit;overflow=hidden;fillColor=none;top=0;left=0;bottom=0;right=0;pointerEvents=1;fontSize=16;" vertex="1" parent="K06LqBxd0SO_TNTU_cGi-121">
          <mxGeometry width="40" height="40" as="geometry">
            <mxRectangle width="40" height="40" as="alternateBounds" />
          </mxGeometry>
        </mxCell>
        <mxCell id="K06LqBxd0SO_TNTU_cGi-123" value="12" style="shape=partialRectangle;html=1;whiteSpace=wrap;connectable=0;strokeColor=inherit;overflow=hidden;fillColor=none;top=0;left=0;bottom=0;right=0;pointerEvents=1;fontSize=16;" vertex="1" parent="K06LqBxd0SO_TNTU_cGi-121">
          <mxGeometry x="40" width="40" height="40" as="geometry">
            <mxRectangle width="40" height="40" as="alternateBounds" />
          </mxGeometry>
        </mxCell>
        <mxCell id="K06LqBxd0SO_TNTU_cGi-124" value="" style="shape=tableRow;horizontal=0;startSize=0;swimlaneHead=0;swimlaneBody=0;strokeColor=inherit;top=0;left=0;bottom=0;right=0;collapsible=0;dropTarget=0;fillColor=none;points=[[0,0.5],[1,0.5]];portConstraint=eastwest;fontSize=16;" vertex="1" parent="K06LqBxd0SO_TNTU_cGi-120">
          <mxGeometry y="40" width="80" height="40" as="geometry" />
        </mxCell>
        <mxCell id="K06LqBxd0SO_TNTU_cGi-125" value="0" style="shape=partialRectangle;html=1;whiteSpace=wrap;connectable=0;strokeColor=inherit;overflow=hidden;fillColor=none;top=0;left=0;bottom=0;right=0;pointerEvents=1;fontSize=16;" vertex="1" parent="K06LqBxd0SO_TNTU_cGi-124">
          <mxGeometry width="40" height="40" as="geometry">
            <mxRectangle width="40" height="40" as="alternateBounds" />
          </mxGeometry>
        </mxCell>
        <mxCell id="K06LqBxd0SO_TNTU_cGi-126" value="10" style="shape=partialRectangle;html=1;whiteSpace=wrap;connectable=0;strokeColor=inherit;overflow=hidden;fillColor=none;top=0;left=0;bottom=0;right=0;pointerEvents=1;fontSize=16;" vertex="1" parent="K06LqBxd0SO_TNTU_cGi-124">
          <mxGeometry x="40" width="40" height="40" as="geometry">
            <mxRectangle width="40" height="40" as="alternateBounds" />
          </mxGeometry>
        </mxCell>
        <mxCell id="K06LqBxd0SO_TNTU_cGi-128" value="" style="shape=table;startSize=0;container=1;collapsible=0;childLayout=tableLayout;fontSize=16;swimlaneLine=1;" vertex="1" parent="1">
          <mxGeometry x="720" y="440" width="80" height="80" as="geometry" />
        </mxCell>
        <mxCell id="K06LqBxd0SO_TNTU_cGi-129" value="" style="shape=tableRow;horizontal=0;startSize=0;swimlaneHead=0;swimlaneBody=0;strokeColor=inherit;top=0;left=0;bottom=0;right=0;collapsible=0;dropTarget=0;fillColor=none;points=[[0,0.5],[1,0.5]];portConstraint=eastwest;fontSize=16;" vertex="1" parent="K06LqBxd0SO_TNTU_cGi-128">
          <mxGeometry width="80" height="40" as="geometry" />
        </mxCell>
        <mxCell id="K06LqBxd0SO_TNTU_cGi-130" value="14" style="shape=partialRectangle;html=1;whiteSpace=wrap;connectable=0;strokeColor=inherit;overflow=hidden;fillColor=none;top=0;left=0;bottom=0;right=0;pointerEvents=1;fontSize=16;" vertex="1" parent="K06LqBxd0SO_TNTU_cGi-129">
          <mxGeometry width="40" height="40" as="geometry">
            <mxRectangle width="40" height="40" as="alternateBounds" />
          </mxGeometry>
        </mxCell>
        <mxCell id="K06LqBxd0SO_TNTU_cGi-131" value="14" style="shape=partialRectangle;html=1;whiteSpace=wrap;connectable=0;strokeColor=inherit;overflow=hidden;fillColor=none;top=0;left=0;bottom=0;right=0;pointerEvents=1;fontSize=16;" vertex="1" parent="K06LqBxd0SO_TNTU_cGi-129">
          <mxGeometry x="40" width="40" height="40" as="geometry">
            <mxRectangle width="40" height="40" as="alternateBounds" />
          </mxGeometry>
        </mxCell>
        <mxCell id="K06LqBxd0SO_TNTU_cGi-132" value="" style="shape=tableRow;horizontal=0;startSize=0;swimlaneHead=0;swimlaneBody=0;strokeColor=inherit;top=0;left=0;bottom=0;right=0;collapsible=0;dropTarget=0;fillColor=none;points=[[0,0.5],[1,0.5]];portConstraint=eastwest;fontSize=16;" vertex="1" parent="K06LqBxd0SO_TNTU_cGi-128">
          <mxGeometry y="40" width="80" height="40" as="geometry" />
        </mxCell>
        <mxCell id="K06LqBxd0SO_TNTU_cGi-133" value="0" style="shape=partialRectangle;html=1;whiteSpace=wrap;connectable=0;strokeColor=inherit;overflow=hidden;fillColor=none;top=0;left=0;bottom=0;right=0;pointerEvents=1;fontSize=16;" vertex="1" parent="K06LqBxd0SO_TNTU_cGi-132">
          <mxGeometry width="40" height="40" as="geometry">
            <mxRectangle width="40" height="40" as="alternateBounds" />
          </mxGeometry>
        </mxCell>
        <mxCell id="K06LqBxd0SO_TNTU_cGi-134" value="11" style="shape=partialRectangle;html=1;whiteSpace=wrap;connectable=0;strokeColor=inherit;overflow=hidden;fillColor=none;top=0;left=0;bottom=0;right=0;pointerEvents=1;fontSize=16;" vertex="1" parent="K06LqBxd0SO_TNTU_cGi-132">
          <mxGeometry x="40" width="40" height="40" as="geometry">
            <mxRectangle width="40" height="40" as="alternateBounds" />
          </mxGeometry>
        </mxCell>
        <mxCell id="K06LqBxd0SO_TNTU_cGi-135" value="" style="endArrow=classic;html=1;rounded=0;fontSize=20;exitX=0.5;exitY=1;exitDx=0;exitDy=0;exitPerimeter=0;" edge="1" parent="1" source="K06LqBxd0SO_TNTU_cGi-124" target="K06LqBxd0SO_TNTU_cGi-129">
          <mxGeometry width="50" height="50" relative="1" as="geometry">
            <mxPoint x="530" y="410" as="sourcePoint" />
            <mxPoint x="580" y="360" as="targetPoint" />
          </mxGeometry>
        </mxCell>
        <mxCell id="K06LqBxd0SO_TNTU_cGi-136" value="(Îš, 2)" style="edgeLabel;html=1;align=center;verticalAlign=middle;resizable=0;points=[];fontSize=20;" vertex="1" connectable="0" parent="K06LqBxd0SO_TNTU_cGi-135">
          <mxGeometry x="0.525" y="1" relative="1" as="geometry">
            <mxPoint x="29" y="-42" as="offset" />
          </mxGeometry>
        </mxCell>
        <mxCell id="K06LqBxd0SO_TNTU_cGi-137" value="" style="endArrow=classic;html=1;rounded=0;fontSize=20;entryX=0;entryY=1;entryDx=0;entryDy=0;entryPerimeter=0;dashed=1;" edge="1" parent="1" target="K06LqBxd0SO_TNTU_cGi-129">
          <mxGeometry width="50" height="50" relative="1" as="geometry">
            <mxPoint x="640" y="360" as="sourcePoint" />
            <mxPoint x="690" y="320" as="targetPoint" />
          </mxGeometry>
        </mxCell>
        <mxCell id="K06LqBxd0SO_TNTU_cGi-140" value="(D2, 0)" style="edgeLabel;html=1;align=center;verticalAlign=middle;resizable=0;points=[];fontSize=20;" vertex="1" connectable="0" parent="K06LqBxd0SO_TNTU_cGi-137">
          <mxGeometry x="-0.3615" y="4" relative="1" as="geometry">
            <mxPoint x="41" as="offset" />
          </mxGeometry>
        </mxCell>
        <mxCell id="K06LqBxd0SO_TNTU_cGi-138" value="" style="endArrow=classic;html=1;rounded=0;fontSize=20;exitX=1;exitY=1;exitDx=0;exitDy=0;exitPerimeter=0;entryX=0;entryY=1;entryDx=0;entryDy=0;entryPerimeter=0;dashed=1;" edge="1" parent="1" source="K06LqBxd0SO_TNTU_cGi-74" target="K06LqBxd0SO_TNTU_cGi-129">
          <mxGeometry width="50" height="50" relative="1" as="geometry">
            <mxPoint x="530" y="410" as="sourcePoint" />
            <mxPoint x="680" y="380" as="targetPoint" />
          </mxGeometry>
        </mxCell>
        <mxCell id="K06LqBxd0SO_TNTU_cGi-141" value="(D3, 0)" style="edgeLabel;html=1;align=center;verticalAlign=middle;resizable=0;points=[];fontSize=20;" vertex="1" connectable="0" parent="K06LqBxd0SO_TNTU_cGi-138">
          <mxGeometry x="0.35" y="-1" relative="1" as="geometry">
            <mxPoint x="-24" y="-21" as="offset" />
          </mxGeometry>
        </mxCell>
        <mxCell id="K06LqBxd0SO_TNTU_cGi-139" value="" style="endArrow=classic;html=1;rounded=0;fontSize=20;exitX=1.005;exitY=-0.001;exitDx=0;exitDy=0;exitPerimeter=0;entryX=0;entryY=0;entryDx=0;entryDy=0;entryPerimeter=0;dashed=1;" edge="1" parent="1" source="K06LqBxd0SO_TNTU_cGi-86" target="K06LqBxd0SO_TNTU_cGi-132">
          <mxGeometry width="50" height="50" relative="1" as="geometry">
            <mxPoint x="530" y="410" as="sourcePoint" />
            <mxPoint x="690" y="480" as="targetPoint" />
          </mxGeometry>
        </mxCell>
        <mxCell id="K06LqBxd0SO_TNTU_cGi-142" value="(D4, 0)" style="edgeLabel;html=1;align=center;verticalAlign=middle;resizable=0;points=[];fontSize=20;" vertex="1" connectable="0" parent="K06LqBxd0SO_TNTU_cGi-139">
          <mxGeometry x="-0.2039" y="-1" relative="1" as="geometry">
            <mxPoint x="38" y="17" as="offset" />
          </mxGeometry>
        </mxCell>
      </root>
    </mxGraphModel>
  </diagram>
</mxfile>
